<svg width="257" height="107" viewBox="0 0 257 107" fill="none" xmlns="http://www.w3.org/2000/svg">
<path d="M99.5568 15.9786V12.8536H121.375V15.9786H112.227V41.9445H108.705V15.9786H99.5568ZM137.138 33.0241V20.1264H140.491V41.9445H137.138V38.2514H136.911C136.4 39.3593 135.604 40.3015 134.525 41.0781C133.445 41.8451 132.082 42.2286 130.434 42.2286C129.07 42.2286 127.858 41.9303 126.798 41.3337C125.737 40.7277 124.904 39.8186 124.298 38.6065C123.691 37.3849 123.388 35.846 123.388 33.99V20.1264H126.741V33.7627C126.741 35.3536 127.186 36.6226 128.076 37.5695C128.976 38.5165 130.121 38.99 131.513 38.99C132.347 38.99 133.194 38.7769 134.056 38.3508C134.927 37.9246 135.656 37.2712 136.244 36.3906C136.84 35.5099 137.138 34.3877 137.138 33.0241ZM156.119 20.1264V22.9673H144.812V20.1264H156.119ZM148.108 14.8991H151.46V35.6945C151.46 36.6415 151.597 37.3517 151.872 37.8252C152.156 38.2892 152.516 38.6017 152.952 38.7627C153.397 38.9142 153.865 38.99 154.358 38.99C154.727 38.99 155.03 38.971 155.267 38.9332C155.504 38.8858 155.693 38.8479 155.835 38.8195L156.517 41.8309C156.29 41.9161 155.972 42.0014 155.565 42.0866C155.158 42.1813 154.642 42.2286 154.017 42.2286C153.07 42.2286 152.142 42.025 151.233 41.6178C150.333 41.2106 149.585 40.5904 148.989 39.757C148.401 38.9237 148.108 37.8726 148.108 36.6036V14.8991ZM169.791 42.3991C167.821 42.3991 166.093 41.9303 164.606 40.9928C163.129 40.0553 161.974 38.7438 161.141 37.0582C160.317 35.3726 159.905 33.4029 159.905 31.1491C159.905 28.8764 160.317 26.8925 161.141 25.1974C161.974 23.5023 163.129 22.186 164.606 21.2485C166.093 20.311 167.821 19.8423 169.791 19.8423C171.761 19.8423 173.484 20.311 174.962 21.2485C176.448 22.186 177.604 23.5023 178.428 25.1974C179.261 26.8925 179.678 28.8764 179.678 31.1491C179.678 33.4029 179.261 35.3726 178.428 37.0582C177.604 38.7438 176.448 40.0553 174.962 40.9928C173.484 41.9303 171.761 42.3991 169.791 42.3991ZM169.791 39.3877C171.287 39.3877 172.518 39.0042 173.484 38.2371C174.45 37.4701 175.165 36.4616 175.629 35.2116C176.093 33.9616 176.325 32.6074 176.325 31.1491C176.325 29.6907 176.093 28.3318 175.629 27.0724C175.165 25.8129 174.45 24.7949 173.484 24.0184C172.518 23.2419 171.287 22.8536 169.791 22.8536C168.295 22.8536 167.064 23.2419 166.098 24.0184C165.132 24.7949 164.417 25.8129 163.953 27.0724C163.489 28.3318 163.257 29.6907 163.257 31.1491C163.257 32.6074 163.489 33.9616 163.953 35.2116C164.417 36.4616 165.132 37.4701 166.098 38.2371C167.064 39.0042 168.295 39.3877 169.791 39.3877ZM184.795 41.9445V20.1264H188.033V23.4218H188.261C188.658 22.3423 189.378 21.4663 190.42 20.794C191.461 20.1216 192.636 19.7854 193.942 19.7854C194.189 19.7854 194.496 19.7902 194.866 19.7996C195.235 19.8091 195.514 19.8233 195.704 19.8423V23.2514C195.59 23.2229 195.33 23.1803 194.923 23.1235C194.525 23.0572 194.103 23.0241 193.658 23.0241C192.598 23.0241 191.651 23.2466 190.817 23.6917C189.994 24.1273 189.34 24.7334 188.857 25.5099C188.384 26.2769 188.147 27.1529 188.147 28.1377V41.9445H184.795Z" fill="black"/>
<path d="M121.932 62.0341V58.9091H143.75V62.0341H134.602V88H131.079V62.0341H121.932ZM154.432 88.4545C152.462 88.4545 150.734 87.9858 149.247 87.0483C147.77 86.1108 146.615 84.7992 145.781 83.1136C144.957 81.428 144.545 79.4583 144.545 77.2045C144.545 74.9318 144.957 72.9479 145.781 71.2528C146.615 69.5578 147.77 68.2415 149.247 67.304C150.734 66.3665 152.462 65.8977 154.432 65.8977C156.401 65.8977 158.125 66.3665 159.602 67.304C161.089 68.2415 162.244 69.5578 163.068 71.2528C163.901 72.9479 164.318 74.9318 164.318 77.2045C164.318 79.4583 163.901 81.428 163.068 83.1136C162.244 84.7992 161.089 86.1108 159.602 87.0483C158.125 87.9858 156.401 88.4545 154.432 88.4545ZM154.432 85.4432C155.928 85.4432 157.159 85.0597 158.125 84.2926C159.091 83.5256 159.806 82.517 160.27 81.267C160.734 80.017 160.966 78.6629 160.966 77.2045C160.966 75.7462 160.734 74.3873 160.27 73.1278C159.806 71.8684 159.091 70.8504 158.125 70.0739C157.159 69.2973 155.928 68.9091 154.432 68.9091C152.936 68.9091 151.704 69.2973 150.739 70.0739C149.773 70.8504 149.058 71.8684 148.594 73.1278C148.13 74.3873 147.898 75.7462 147.898 77.2045C147.898 78.6629 148.13 80.017 148.594 81.267C149.058 82.517 149.773 83.5256 150.739 84.2926C151.704 85.0597 152.936 85.4432 154.432 85.4432ZM177.674 88.4545C175.856 88.4545 174.251 87.9953 172.859 87.0767C171.467 86.1487 170.378 84.8419 169.592 83.1562C168.806 81.4612 168.413 79.4583 168.413 77.1477C168.413 74.8561 168.806 72.8674 169.592 71.1818C170.378 69.4962 171.471 68.1941 172.873 67.2756C174.274 66.357 175.894 65.8977 177.731 65.8977C179.151 65.8977 180.273 66.1345 181.097 66.608C181.931 67.072 182.565 67.6023 183.001 68.1989C183.446 68.786 183.791 69.2689 184.038 69.6477H184.322V58.9091H187.674V88H184.435V84.6477H184.038C183.791 85.0455 183.441 85.5473 182.986 86.1534C182.532 86.75 181.883 87.285 181.04 87.7585C180.198 88.2225 179.075 88.4545 177.674 88.4545ZM178.128 85.4432C179.473 85.4432 180.61 85.0928 181.538 84.392C182.466 83.6818 183.171 82.7017 183.654 81.4517C184.137 80.1922 184.378 78.7386 184.378 77.0909C184.378 75.4621 184.142 74.0369 183.668 72.8153C183.195 71.5843 182.494 70.6278 181.566 69.946C180.638 69.2547 179.492 68.9091 178.128 68.9091C176.708 68.9091 175.524 69.2737 174.577 70.0028C173.64 70.7225 172.934 71.7027 172.461 72.9432C171.997 74.1742 171.765 75.5568 171.765 77.0909C171.765 78.6439 172.002 80.0549 172.475 81.3239C172.958 82.5833 173.668 83.5871 174.606 84.3352C175.553 85.0739 176.727 85.4432 178.128 85.4432ZM200.7 88.5114C199.317 88.5114 198.062 88.2509 196.935 87.7301C195.808 87.1998 194.914 86.4375 194.251 85.4432C193.588 84.4394 193.256 83.2273 193.256 81.8068C193.256 80.5568 193.503 79.5436 193.995 78.767C194.487 77.9811 195.146 77.3655 195.969 76.9205C196.793 76.4754 197.702 76.1439 198.697 75.9261C199.7 75.6989 200.709 75.5189 201.722 75.3864C203.048 75.2159 204.123 75.0881 204.947 75.0028C205.78 74.9081 206.386 74.7519 206.765 74.5341C207.153 74.3163 207.347 73.9375 207.347 73.3977V73.2841C207.347 71.8826 206.964 70.7936 206.197 70.017C205.439 69.2405 204.289 68.8523 202.745 68.8523C201.145 68.8523 199.89 69.2027 198.981 69.9034C198.072 70.6042 197.432 71.3523 197.063 72.1477L193.881 71.0114C194.45 69.6856 195.207 68.6534 196.154 67.9148C197.11 67.1667 198.152 66.6458 199.279 66.3523C200.415 66.0492 201.533 65.8977 202.631 65.8977C203.332 65.8977 204.137 65.983 205.046 66.1534C205.965 66.3144 206.85 66.6506 207.702 67.1619C208.564 67.6733 209.279 68.4451 209.847 69.4773C210.415 70.5095 210.7 71.892 210.7 73.625V88H207.347V85.0455H207.177C206.95 85.5189 206.571 86.0256 206.04 86.5653C205.51 87.1051 204.805 87.5644 203.924 87.9432C203.043 88.322 201.968 88.5114 200.7 88.5114ZM201.211 85.5C202.537 85.5 203.654 85.2396 204.563 84.7188C205.482 84.1979 206.173 83.5256 206.637 82.7017C207.11 81.8778 207.347 81.0114 207.347 80.1023V77.0341C207.205 77.2045 206.893 77.3608 206.41 77.5028C205.936 77.6354 205.387 77.7538 204.762 77.858C204.146 77.9527 203.545 78.0379 202.958 78.1136C202.38 78.1799 201.912 78.2367 201.552 78.2841C200.681 78.3977 199.866 78.5824 199.109 78.8381C198.36 79.0843 197.754 79.4583 197.29 79.9602C196.836 80.4527 196.609 81.125 196.609 81.9773C196.609 83.142 197.039 84.0227 197.901 84.6193C198.772 85.2064 199.876 85.5 201.211 85.5ZM218.196 96.1818C217.628 96.1818 217.121 96.1345 216.676 96.0398C216.231 95.9545 215.923 95.8693 215.753 95.7841L216.605 92.8295C217.419 93.0379 218.139 93.1136 218.764 93.0568C219.389 93 219.943 92.7206 220.426 92.2188C220.918 91.7263 221.368 90.9261 221.776 89.8182L222.401 88.1136L214.332 66.1818H217.969L223.991 83.5682H224.219L230.241 66.1818H233.878L224.616 91.1818C224.2 92.3087 223.684 93.2415 223.068 93.9801C222.453 94.7282 221.738 95.2822 220.923 95.642C220.118 96.0019 219.209 96.1818 218.196 96.1818Z" fill="black"/>
<path d="M25 49H74V81.6415L72.6214 82.9412C59.0968 95.6922 37.809 95.1112 25 81.6415V81.6415V49Z" fill="#949494"/>
<path d="M0 48.7917L48.91 24L98 49.2083L48.91 72.5L0 48.7917Z" fill="#710303"/>
</svg>
